<svg width="24" height="24" viewBox="0 0 24 24" fill="none" xmlns="http://www.w3.org/2000/svg">
<path d="M7.80005 22.3C7.60005 22.3 7.50005 22.3 7.40005 22.3C6.30005 22.2 5.40005 21.5 5.00005 20.4C5.00005 20.3 4.90005 20.2 4.90005 20L3.30005 13.7C3.30005 13.7 3.30005 13.7 3.30005 13.6C2.10005 12.6 1.30005 11.1 1.30005 9.5C1.30005 6.6 3.70005 4.2 6.50005 4.2H10.3C11.6 4.2 13.4 3.6 15.5 2.4C16.6 1.8 17.2001 1.5 17.7001 1.6C18.2001 1.7 18.6 1.9 18.9 2.3C19.2 2.8 19.2001 3.3 19.2001 4.6V5.3C21.2001 5.70001 22.7001 7.4 22.7001 9.5C22.7001 11.6 21.2001 13.3 19.2001 13.7V14.4C19.2001 15.6 19.2 16.2 18.9 16.7C18.6 17.1 18.2001 17.4 17.7001 17.4C17.1 17.5 16.6 17.2 15.5 16.6C13.6 15.6 12 15 10.8 14.9V19.4V19.9C10.7 21.2 9.60005 22.2 8.30005 22.4C8.20005 22.3 8.00005 22.3 7.80005 22.3ZM7.80005 20.8H8.20005C8.80005 20.7 9.30005 20.3 9.30005 19.7C9.30005 19.6 9.30005 19.5 9.30005 19.3V14.8H6.50005C6.00005 14.8 5.50005 14.7 5.00005 14.6L6.30005 19.7C6.30005 19.8 6.40005 19.9 6.40005 20C6.60005 20.5 7.00005 20.8 7.50005 20.8H7.80005ZM10.8 13.3C12.3 13.4 14.1 14.1 16.3 15.2C16.9 15.5 17.5 15.9 17.7001 15.9C17.7001 15.9 17.8 15.9 17.8 15.8C17.8 15.7 17.8 15.1 17.8 14.4V4.7C17.8 4 17.8001 3.4 17.7001 3.3C17.7001 3.3 17.6 3.2 17.5 3.2C17.4 3.2 16.8 3.5 16.2 3.9C14.1 5.1 12.2 5.70001 10.7 5.8V13.3H10.8ZM6.50005 5.8C4.40005 5.8 2.70005 7.50001 2.70005 9.60001C2.70005 11.7 4.40005 13.4 6.50005 13.4H9.30005V5.8H6.50005ZM19.3 6.9V12.2C20.5 11.9 21.3 10.8 21.3 9.60001C21.3 8.40001 20.4 7.20001 19.3 6.9Z" fill="white"/>
</svg>
