<svg width="300" height="170" viewBox="0 0 300 170" fill="none" xmlns="http://www.w3.org/2000/svg">
<path d="M300 25H0V155C0 163.284 6.71573 170 15 170H285C293.284 170 300 163.284 300 155V25Z" fill="#0B314E"/>
<path d="M220 15C220 6.71573 213.284 0 205 0H15C6.71573 0 0 6.71573 0 15V30H220V15Z" fill="#0B314E"/>
<path d="M300 15C300 6.71573 293.284 0 285 0H266V25H300V15Z" fill="#0B314E"/>
<path d="M226.394 32H290.606C297.745 32 301.309 23.3596 296.247 18.3266L280.153 2.32664C278.654 0.836452 276.626 0 274.512 0H242.488C240.374 0 238.346 0.836447 236.847 2.32664L220.753 18.3266C215.691 23.3596 219.255 32 226.394 32Z" fill="#0B314E"/>
</svg>
