<svg width="220" height="170" viewBox="0 0 220 170" fill="none" xmlns="http://www.w3.org/2000/svg">
<path d="M0 25H220V160C220 165.523 215.523 170 210 170H10C4.47716 170 0 165.523 0 160V25Z" fill="#FF8F27"/>
<path d="M80 10C80 4.47715 84.4772 0 90 0H210C215.523 0 220 4.47715 220 10V30H80V10Z" fill="#FF8F27"/>
<path d="M0 10C0 4.47715 4.47715 0 10 0H24C29.5228 0 34 4.47715 34 10V25H0V10Z" fill="#FF8F27"/>
<path d="M73.6062 32H9.39378C2.25527 32 -1.30893 23.3596 3.75349 18.3266L19.8472 2.32664C21.3462 0.836452 23.3739 0 25.4875 0H57.5124C59.6261 0 61.6538 0.836447 63.1527 2.32664L79.2465 18.3266C84.3089 23.3596 80.7447 32 73.6062 32Z" fill="#FF8F27"/>
</svg>
