<svg width="300" height="212" viewBox="0 0 300 212" fill="none" xmlns="http://www.w3.org/2000/svg">
<path d="M0 25H300V197C300 205.284 293.284 212 285 212H15C6.71573 212 0 205.284 0 197V25Z" fill="#0B314E"/>
<path d="M80 15C80 6.71573 86.7157 0 95 0H285C293.284 0 300 6.71573 300 15V30H80V15Z" fill="#0B314E"/>
<path d="M0 15C0 6.71573 6.71573 0 15 0H34V25H0V15Z" fill="#0B314E"/>
<path d="M73.6062 32H9.39378C2.25527 32 -1.30893 23.3596 3.75349 18.3266L19.8472 2.32664C21.3462 0.836452 23.3739 0 25.4875 0H57.5124C59.6261 0 61.6538 0.836447 63.1527 2.32664L79.2465 18.3266C84.3089 23.3596 80.7447 32 73.6062 32Z" fill="#0B314E"/>
</svg>
