<svg width="42" height="42" viewBox="0 0 42 42" fill="none" xmlns="http://www.w3.org/2000/svg">
<path fill-rule="evenodd" clip-rule="evenodd" d="M16.4966 7.9765C9.90736 12.2083 6.24674 17.1336 5.51474 22.7525C4.37518 31.5 12.1979 35.7816 16.1615 31.9346C20.1252 28.0877 17.7492 23.2047 14.8791 21.8699C12.009 20.5351 10.2539 21 10.56 19.2164C10.8662 17.4327 14.9495 12.4874 18.5368 10.1843C18.7748 9.98193 18.8654 9.58923 18.6362 9.29138C18.4854 9.09538 18.1898 8.71114 17.7492 8.13851C17.3639 7.63778 16.9949 7.65652 16.4966 7.9765Z" fill="white"/>
<path fill-rule="evenodd" clip-rule="evenodd" d="M33.844 7.9765C27.2549 12.2083 23.5942 17.1336 22.8622 22.7525C21.7227 31.5 29.5453 35.7816 33.509 31.9346C37.4727 28.0877 35.0967 23.2047 32.2266 21.8699C29.3565 20.5351 27.6013 21 27.9075 19.2164C28.2137 17.4327 32.2969 12.4874 35.8843 10.1843C36.1223 9.98193 36.2128 9.58923 35.9836 9.29138C35.8329 9.09538 35.5372 8.71114 35.0967 8.13851C34.7114 7.63778 34.3424 7.65652 33.844 7.9765Z" fill="white"/>
</svg>
