<svg width="200" height="200" viewBox="0 0 200 200" fill="none" xmlns="http://www.w3.org/2000/svg">
<circle cx="100" cy="100" r="100" fill="#FF8F27"/>
<g clip-path="url(#clip0_112_479)">
<mask id="mask0_112_479" style="mask-type:luminance" maskUnits="userSpaceOnUse" x="52" y="52" width="97" height="97">
<path d="M122.477 52.3485L52 78L77.6515 148.477L148.128 122.825L122.477 52.3485Z" fill="white"/>
</mask>
<g mask="url(#mask0_112_479)">
<path fill-rule="evenodd" clip-rule="evenodd" d="M128.89 69.9677L123.161 54.2279C122.783 53.1899 121.636 52.6547 120.598 53.0325L89.1179 64.4902C88.0799 64.868 87.5447 66.0157 87.9225 67.0536L93.6488 82.7865C90.1045 73.0603 79.3478 68.0462 69.6192 71.5871L53.8794 77.316C52.8414 77.6937 52.3063 78.8414 52.684 79.8794L64.1417 111.359C64.5195 112.397 65.6672 112.932 66.7051 112.554L82.445 106.826C72.7142 110.367 67.6969 121.127 71.2386 130.858L76.9675 146.598C77.3453 147.636 78.4929 148.171 79.5309 147.793L111.011 136.335C112.049 135.957 112.584 134.81 112.206 133.772L106.477 118.032C110.019 127.763 120.778 132.78 130.509 129.238L146.249 123.509C147.287 123.132 147.822 121.984 147.444 120.946L135.987 89.4663C135.609 88.4284 134.461 87.8932 133.423 88.271L117.691 93.9973C127.417 90.453 132.431 79.6963 128.89 69.9677Z" fill="#FFEC3F"/>
</g>
</g>
<path d="M135.208 18.3098C134.621 19.6709 133.559 20.0342 132.11 19.6506L133.181 24.1321L132.059 23.6485L131.065 19.285L129.19 18.4773L127.761 21.7965L126.806 21.3849L130.241 13.4094L133.309 14.7315C135.172 15.5341 135.892 16.7219 135.208 18.3098ZM134.241 17.8931C134.724 16.7708 134.264 16.0632 132.784 15.4253L130.862 14.597L129.525 17.7012L131.447 18.5295C132.844 19.1314 133.757 19.0154 134.241 17.8931Z" fill="#FFEC3F"/>
<path d="M142.957 29.317C141.363 28.2638 140.927 26.6359 142.066 24.9109C143.162 23.2511 144.819 22.9122 146.326 23.9081C147.834 24.904 148.166 26.5721 147.142 28.1234C147.091 28.1993 147.002 28.3115 146.941 28.3803L142.786 25.6362C142.038 26.8402 142.284 27.9533 143.445 28.7199C144.053 29.1212 144.905 29.3879 145.64 29.3126L145.578 30.0196C144.72 30.1387 143.728 29.8257 142.957 29.317ZM145.904 24.5482C144.917 23.8962 143.901 24.1133 143.144 25.0938L146.485 27.3005C147.097 26.2558 146.912 25.2145 145.904 24.5482Z" fill="#FFEC3F"/>
<path d="M154.345 37.5156L153.573 36.7995L155.878 30.604L156.651 31.3201L154.653 36.4001L159.567 34.0252L160.339 34.7413L154.345 37.5156Z" fill="#FFEC3F"/>
<path d="M163.5 47.0147C162.295 45.4486 162.568 43.7784 164.113 42.5889C165.659 41.3995 167.343 41.5631 168.548 43.1291C169.753 44.6951 169.48 46.3654 167.935 47.5548C166.389 48.7443 164.705 48.5807 163.5 47.0147ZM164.18 46.4913C165.013 47.5731 166.17 47.6497 167.324 46.7615C168.478 45.8734 168.7 44.7343 167.868 43.6525C167.036 42.5707 165.878 42.4941 164.724 43.3822C163.57 44.2704 163.348 45.4095 164.18 46.4913Z" fill="#FFEC3F"/>
<path d="M170.911 57.2263L170.432 56.3769L177.997 52.1124L178.476 52.9619L170.911 57.2263Z" fill="#FFEC3F"/>
<path d="M175.684 66.5745C175.188 65.3026 175.604 64.2199 177.191 63.6019L180.692 62.2383L181.045 63.1469L177.654 64.468C176.515 64.9115 176.214 65.5726 176.578 66.5054C177.007 67.6078 178.059 67.9095 179.355 67.4047L182.262 66.2723L182.616 67.1809L176.923 69.3984L176.583 68.5262L177.685 68.0968C176.798 68.0381 176.066 67.5558 175.684 66.5745Z" fill="#FFEC3F"/>
<path d="M180.26 79.9035C180.048 78.9386 180.438 78.2935 181.504 78.0585L185.199 77.2446L184.914 75.9496L185.688 75.779L185.973 77.0739L187.674 76.6991L187.884 77.6513L186.183 78.0261L186.527 79.5877L185.753 79.7583L185.409 78.1967L181.74 79.0051C181.181 79.1282 180.976 79.4662 181.091 79.9867C181.146 80.2407 181.24 80.4862 181.36 80.7261L180.662 80.8799C180.491 80.6512 180.347 80.297 180.26 79.9035Z" fill="#FFEC3F"/>
<path d="M182.161 89.6135L182.069 88.6429L188.151 88.0652L188.243 89.0359L182.161 89.6135ZM189.712 88.4132C189.678 88.0509 189.899 87.7687 190.236 87.7367C190.572 87.7048 190.842 87.9403 190.877 88.3026C190.911 88.665 190.689 88.9342 190.352 88.9662C190.016 88.9982 189.747 88.7756 189.712 88.4132Z" fill="#FFEC3F"/>
<path d="M182.705 100.793C182.8 98.8198 184.089 97.7236 186.037 97.8175C187.985 97.9114 189.163 99.1265 189.068 101.1C188.973 103.074 187.683 104.17 185.736 104.076C183.788 103.982 182.61 102.767 182.705 100.793ZM183.562 100.835C183.496 102.198 184.329 103.006 185.784 103.076C187.238 103.146 188.145 102.422 188.211 101.059C188.276 99.6955 187.443 98.8874 185.989 98.8173C184.535 98.7472 183.628 99.4714 183.562 100.835Z" fill="#FFEC3F"/>
<path d="M180.896 117.681L181.109 116.73L184.661 117.528C185.853 117.797 186.469 117.429 186.688 116.452C186.951 115.285 186.246 114.447 184.889 114.142L181.845 113.457L182.059 112.506L188.02 113.847L187.815 114.76L186.661 114.5C187.364 115.045 187.702 115.854 187.471 116.881C187.169 118.226 186.222 118.879 184.561 118.505L180.896 117.681Z" fill="#FFEC3F"/>
<path d="M178.279 127.156L178.625 126.245L184.336 128.418L183.989 129.329L178.279 127.156ZM185.582 129.421C185.711 129.081 186.034 128.925 186.35 129.046C186.666 129.166 186.804 129.497 186.675 129.837C186.546 130.177 186.227 130.32 185.911 130.2C185.595 130.08 185.452 129.761 185.582 129.421Z" fill="#FFEC3F"/>
<path d="M173.369 138.436L175.516 134.424L176.158 134.768L178.658 139.822L180.142 137.049L180.841 137.423L178.817 141.205L178.175 140.862L175.675 135.807L174.068 138.81L173.369 138.436Z" fill="#FFEC3F"/>
<path d="M167.751 147.52C168.906 145.998 170.558 145.669 172.205 146.918C173.79 148.12 174.02 149.796 172.928 151.236C171.836 152.676 170.15 152.898 168.669 151.774C168.596 151.719 168.49 151.622 168.425 151.557L171.434 147.59C170.282 146.764 169.155 146.938 168.315 148.046C167.875 148.626 167.553 149.459 167.58 150.197L166.879 150.09C166.816 149.226 167.193 148.255 167.751 147.52ZM172.317 150.772C173.031 149.83 172.881 148.802 171.952 147.983L169.533 151.173C170.535 151.852 171.586 151.736 172.317 150.772Z" fill="#FFEC3F"/>
<path d="M150.768 165.506L151.604 164.887L153.623 167.614L159.581 169.786L158.61 170.505L153.769 168.687L154.096 173.848L153.125 174.567L152.787 168.233L150.768 165.506Z" fill="#FFEC3F"/>
<path d="M139.93 172.554C141.696 171.667 143.284 172.252 144.158 173.995C145.033 175.738 144.553 177.361 142.786 178.247C141.02 179.134 139.433 178.549 138.558 176.806C137.684 175.063 138.164 173.44 139.93 172.554ZM140.315 173.321C139.095 173.933 138.8 175.055 139.453 176.357C140.106 177.658 141.182 178.093 142.402 177.481C143.622 176.868 143.917 175.746 143.264 174.444C142.611 173.143 141.535 172.708 140.315 173.321Z" fill="#FFEC3F"/>
<path d="M127.223 178.257C128.531 177.866 129.576 178.368 130.064 179.999L131.14 183.599L130.206 183.878L129.163 180.391C128.813 179.22 128.178 178.867 127.219 179.154C126.086 179.493 125.7 180.517 126.099 181.85L126.992 184.839L126.058 185.119L124.308 179.265L125.205 178.996L125.544 180.13C125.674 179.25 126.214 178.559 127.223 178.257Z" fill="#FFEC3F"/>
<path d="M114.77 181.657L115.735 181.524L116.568 187.577L115.641 187.705L115.457 186.365C115.24 187.366 114.699 187.913 113.9 188.023C113.668 188.055 113.446 188.059 113.323 188.024L113.199 187.122C113.423 187.131 113.646 187.126 113.865 187.096C114.792 186.969 115.37 186.023 115.172 184.58L114.77 181.657Z" fill="#FFEC3F"/>
<path d="M92.1782 182.489C93.3637 182.648 94.2594 183.109 95.0878 184.072L94.5591 184.788C93.7461 183.906 92.9775 183.475 92.0626 183.352C90.7097 183.171 89.8521 183.699 89.7123 184.742C89.6192 185.438 90.0106 186.042 90.8514 186.325L92.321 186.81C93.7519 187.29 94.2798 188.148 94.1417 189.179C93.9537 190.583 92.8337 191.601 90.8881 191.34C89.8573 191.202 88.9401 190.804 88.2121 189.972L88.7408 189.255C89.3864 189.919 90.076 190.352 90.9779 190.473C92.2149 190.639 92.9454 190.081 93.0696 189.153C93.1628 188.457 92.7576 187.957 91.9296 187.676L90.4601 187.19C89.0291 186.71 88.5186 185.724 88.6566 184.693C88.8671 183.121 90.1424 182.216 92.1782 182.489Z" fill="#FFEC3F"/>
<path d="M77.8559 179.869C79.7379 180.471 80.4638 182 79.8699 183.857C79.276 185.714 77.7978 186.538 75.9158 185.936C74.0337 185.334 73.3079 183.805 73.9018 181.948C74.4957 180.091 75.9738 179.267 77.8559 179.869ZM77.5946 180.686C76.2945 180.27 75.2986 180.866 74.8552 182.253C74.4117 183.64 74.877 184.703 76.1771 185.119C77.4772 185.535 78.473 184.939 78.9165 183.552C79.3599 182.165 78.8947 181.102 77.5946 180.686Z" fill="#FFEC3F"/>
<path d="M64.311 174.786C66.0651 175.695 66.5239 177.324 65.6264 179.056C64.729 180.787 63.1335 181.351 61.3793 180.441C60.6061 180.04 60.091 179.48 59.8166 178.767L60.4978 178.3C60.7791 178.944 61.1856 179.374 61.7742 179.679C62.986 180.308 64.0677 179.887 64.7378 178.595C65.4079 177.302 65.1279 176.176 63.9161 175.547C63.3275 175.242 62.7415 175.158 62.0534 175.299L62.0422 174.473C62.7833 174.286 63.5377 174.385 64.311 174.786Z" fill="#FFEC3F"/>
<path d="M54.3293 169.284L55.1263 169.845L51.6079 174.841L50.8108 174.279L54.3293 169.284ZM50.3282 175.8C50.6257 176.009 50.696 176.361 50.5014 176.637C50.3067 176.914 49.952 176.966 49.6544 176.756C49.3569 176.546 49.2972 176.202 49.4918 175.926C49.6865 175.65 50.0306 175.59 50.3282 175.8Z" fill="#FFEC3F"/>
<path d="M46.2112 163.081C47.2352 164.042 47.4181 165.158 46.6089 166.021C45.7908 166.893 44.6653 166.782 43.6413 165.822C43.0629 165.279 42.5699 164.532 42.4012 163.856L41.9743 164.312C41.174 165.165 41.2207 166.047 42.1309 166.9C42.6144 167.354 43.1934 167.63 43.9224 167.708L43.7344 168.44C42.83 168.34 42.1668 168.021 41.5126 167.408C40.1947 166.171 40.0983 164.887 41.2277 163.682L43.7709 160.97L44.4535 161.611L43.7244 162.388C44.5797 162.103 45.4242 162.343 46.2112 163.081ZM45.5159 163.481C44.6531 162.671 43.6609 162.703 42.8351 163.337C42.9737 163.93 43.4204 164.67 43.9419 165.159C44.6625 165.835 45.372 165.877 45.8521 165.365C46.3234 164.862 46.2365 164.157 45.5159 163.481Z" fill="#FFEC3F"/>
<path d="M36.957 153.951L37.5686 154.71L30.806 160.158L30.1945 159.399L36.957 153.951Z" fill="#FFEC3F"/>
<path d="M22.8388 130.474L23.2299 131.424L16.1863 134.326L24.4775 134.453L24.829 135.306L19.0331 141.237L26.0767 138.335L26.4728 139.297L18.4436 142.605L17.8297 141.115L23.3216 135.435L15.4235 135.273L14.8096 133.782L22.8388 130.474Z" fill="#FFEC3F"/>
<path d="M19.2428 118.604C19.5985 120.481 18.7348 121.929 16.7039 122.313C14.7497 122.684 13.352 121.731 13.0157 119.956C12.6794 118.18 13.6446 116.78 15.4711 116.434C15.5605 116.417 15.7034 116.403 15.7953 116.399L16.722 121.291C18.1069 120.989 18.7336 120.037 18.4747 118.67C18.3392 117.955 17.9369 117.158 17.3706 116.683L17.9208 116.235C18.6037 116.767 19.0711 117.697 19.2428 118.604ZM13.7693 119.813C13.9894 120.975 14.853 121.553 16.0833 121.412L15.3381 117.478C14.1623 117.767 13.5442 118.625 13.7693 119.813Z" fill="#FFEC3F"/>
<path d="M17.2688 104.814C17.2918 106.595 16.0842 107.716 14.1214 107.741C12.1585 107.766 10.9224 106.677 10.8994 104.896C10.8852 103.804 11.3305 103.045 12.1178 102.605L8.42616 102.653L8.41356 101.678L17.0968 101.566L17.1089 102.502L15.926 102.517C16.7505 102.936 17.2542 103.683 17.2688 104.814ZM16.4082 104.617C16.3917 103.343 15.5881 102.522 14.0542 102.541C12.5203 102.561 11.7381 103.403 11.7546 104.677C11.7709 105.938 12.5746 106.76 14.1084 106.74C15.6423 106.72 16.4245 105.878 16.4082 104.617Z" fill="#FFEC3F"/>
<path d="M17.4718 91.5976L17.3441 92.5642L11.2867 91.7644L11.4144 90.7978L17.4718 91.5976ZM9.84346 91.0755C9.7958 91.4364 9.51689 91.6618 9.1818 91.6176C8.8467 91.5733 8.63587 91.2832 8.68353 90.9223C8.73119 90.5615 9.0084 90.3489 9.34349 90.3932C9.67859 90.4374 9.89112 90.7146 9.84346 91.0755Z" fill="#FFEC3F"/>
<path d="M19.1948 81.5494C18.8177 82.9019 17.9131 83.5808 16.7736 83.2629C15.6216 82.9416 15.1989 81.8924 15.576 80.54C15.789 79.7762 16.2233 78.993 16.7435 78.5308L16.1425 78.3632C15.0155 78.0488 14.2559 78.4983 13.9207 79.7004C13.7426 80.339 13.7663 80.98 14.0349 81.6622L13.2985 81.8347C12.9682 80.9868 12.9438 80.2512 13.1848 79.3872C13.6701 77.6466 14.764 76.9665 16.3543 77.41L19.9356 78.409L19.6842 79.3106L18.6574 79.0242C19.306 79.6505 19.4847 80.5101 19.1948 81.5494ZM18.5189 81.118C18.8366 79.9784 18.349 79.1136 17.4052 78.6749C16.9434 79.0725 16.4945 79.811 16.3025 80.4997C16.0371 81.4514 16.3287 82.0996 17.0049 82.2882C17.6686 82.4733 18.2535 82.0697 18.5189 81.118Z" fill="#FFEC3F"/>
<path d="M24.9179 52.4C26.4545 53.3754 26.5937 54.7573 25.4862 56.5025L24.2532 58.4453L27.0629 60.229L26.5056 61.1071L19.1742 56.4529L20.9644 53.632C22.0719 51.8867 23.3814 51.4246 24.9179 52.4ZM24.3537 53.2891C23.2123 52.5645 22.4092 52.9323 21.5663 54.2605L20.4448 56.0276L23.5398 57.9924L24.6613 56.2252C25.4554 54.9739 25.4951 54.0137 24.3537 53.2891Z" fill="#FFEC3F"/>
<path d="M35.5594 47.7794L34.915 48.5111L30.3303 44.4722L30.9489 43.7698L31.9634 44.6635C31.4735 43.7641 31.5261 42.9962 32.0588 42.3914C32.2135 42.2158 32.379 42.0671 32.4954 42.0137L33.1782 42.6152C33.0029 42.7553 32.8373 42.9039 32.6913 43.0698C32.0727 43.7722 32.2525 44.8662 33.3451 45.8287L35.5594 47.7794Z" fill="#FFEC3F"/>
<path d="M44.3615 38.6876C42.8985 39.917 41.214 39.8723 39.8845 38.2896C38.6051 36.7667 38.7514 35.0815 40.1348 33.919C41.5182 32.7564 43.2115 32.9127 44.4072 34.3361C44.4658 34.4058 44.5478 34.5236 44.5964 34.6016L40.7846 37.8049C41.7259 38.8648 42.863 38.945 43.9279 38.0501C44.4852 37.5818 44.9832 36.8407 45.1201 36.1143L45.7802 36.3747C45.6505 37.2308 45.0682 38.0938 44.3615 38.6876ZM40.6282 34.5062C39.7225 35.2673 39.6418 36.3031 40.3665 37.3072L43.4319 34.7312C42.6044 33.8473 41.5537 33.7284 40.6282 34.5062Z" fill="#FFEC3F"/>
<path d="M55.0173 30.4878C54.2233 30.9584 53.3999 31.0988 52.4841 31.0069L52.4639 30.2331C53.3709 30.2849 54.0738 30.1705 54.6442 29.8325C55.5277 29.3089 55.7096 28.6722 55.3981 28.1465C55.1463 27.7215 54.8013 27.6238 54.0864 27.8963L53.0008 28.2828C51.9732 28.6652 51.2272 28.5028 50.8098 27.7982C50.2863 26.9146 50.5179 25.7498 51.8376 24.9677C52.598 24.517 53.4148 24.3654 54.15 24.4586L54.1703 25.2324C53.5241 25.1619 52.8146 25.2651 52.2443 25.6031C51.5397 26.0207 51.2998 26.6615 51.6179 27.1984C51.8233 27.5451 52.1861 27.6474 52.8273 27.4034L53.9129 27.0169C54.9517 26.6279 55.7159 26.7191 56.2195 27.5691C56.7827 28.5198 56.4265 29.6527 55.0173 30.4878Z" fill="#FFEC3F"/>
<path d="M67.0908 24.0466C65.2524 24.7713 63.7233 24.0467 63.0083 22.2325C62.2934 20.4183 62.9169 18.8449 64.7552 18.1202C65.5655 17.8008 66.326 17.7805 67.0441 18.0424L66.9482 18.8627C66.2782 18.6517 65.6866 18.6753 65.0698 18.9185C63.7999 19.4191 63.4057 20.5107 63.9396 21.8654C64.4734 23.22 65.5063 23.749 66.7762 23.2484C67.393 23.0052 67.8415 22.6188 68.1874 22.0073L68.8172 22.5416C68.4709 23.2231 67.9011 23.7272 67.0908 24.0466Z" fill="#FFEC3F"/>
<path d="M79.7241 19.744C77.8543 20.1384 76.3897 19.3048 75.9632 17.2823C75.5528 15.3361 76.4762 13.9189 78.2443 13.546C80.0124 13.173 81.4321 14.1091 81.8157 15.9281C81.8345 16.0171 81.8513 16.1597 81.8573 16.2514L76.9856 17.2792C77.3161 18.6576 78.2811 19.2645 79.6422 18.9774C80.3545 18.8271 81.143 18.4083 81.6062 17.8323L82.0656 18.3731C81.5477 19.067 80.6272 19.5535 79.7241 19.744ZM78.4026 14.2964C77.2451 14.5406 76.6856 15.416 76.8514 16.6432L80.7692 15.8167C80.4561 14.6471 79.5855 14.0469 78.4026 14.2964Z" fill="#FFEC3F"/>
<path d="M96.1797 17.2695L95.2054 17.3055L95.0709 13.668C95.0258 12.4468 94.5129 11.9454 93.5126 11.9824C92.3174 12.0266 91.687 12.9216 91.7384 14.3116L91.8537 17.4295L90.8793 17.4655L90.6536 11.3597L91.589 11.3251L91.6327 12.5073C91.9796 11.6879 92.6754 11.1548 93.7277 11.1159C95.1048 11.065 95.978 11.8132 96.0409 13.515L96.1797 17.2695Z" fill="#FFEC3F"/>
<defs>
<clipPath id="clip0_112_479">
<rect x="52" y="78" width="75" height="75" rx="10" transform="rotate(-20 52 78)" fill="white"/>
</clipPath>
</defs>
</svg>
