<svg width="24" height="24" viewBox="0 0 24 24" fill="none" xmlns="http://www.w3.org/2000/svg">
<g clip-path="url(#clip0_89_43)">
<path d="M12 13C12.5523 13 13 12.5523 13 12C13 11.4477 12.5523 11 12 11C11.4477 11 11 11.4477 11 12C11 12.5523 11.4477 13 12 13Z" stroke="white" stroke-width="2" stroke-linecap="round" stroke-linejoin="round"/>
<path d="M12 7C11.0111 7 10.0444 7.29324 9.22215 7.84265C8.39991 8.39206 7.75904 9.17295 7.3806 10.0866C7.00217 11.0002 6.90315 12.0055 7.09608 12.9755C7.289 13.9454 7.76521 14.8363 8.46447 15.5355C9.16373 16.2348 10.0546 16.711 11.0246 16.9039C11.9945 17.0969 12.9998 16.9978 13.9134 16.6194C14.827 16.241 15.6079 15.6001 16.1574 14.7779C16.7068 13.9556 17 12.9889 17 12" stroke="white" stroke-width="2" stroke-linecap="round" stroke-linejoin="round"/>
<path d="M13.004 3.05499C11.1501 2.847 9.27733 3.22027 7.64481 4.12316C6.0123 5.02605 4.7007 6.41394 3.89145 8.09485C3.08221 9.77575 2.81531 11.6666 3.12767 13.5058C3.44004 15.345 4.31624 17.0418 5.63506 18.3612C6.95388 19.6807 8.65014 20.5578 10.4892 20.8711C12.3283 21.1844 14.2193 20.9184 15.9006 20.11C17.5819 19.3016 18.9704 17.9907 19.8741 16.3586C20.7779 14.7266 21.1521 12.854 20.945 11" stroke="white" stroke-width="2" stroke-linecap="round" stroke-linejoin="round"/>
<path d="M15 6V9H18L21 6H18V3L15 6Z" stroke="white" stroke-width="2" stroke-linecap="round" stroke-linejoin="round"/>
<path d="M15 9L12 12" stroke="white" stroke-width="2" stroke-linecap="round" stroke-linejoin="round"/>
</g>
<defs>
<clipPath id="clip0_89_43">
<rect width="24" height="24" fill="white"/>
</clipPath>
</defs>
</svg>
